<?xml version="1.0" standalone="no"?>
<!DOCTYPE svg PUBLIC "-//W3C//DTD SVG 20010904//EN"
 "http://www.w3.org/TR/2001/REC-SVG-20010904/DTD/svg10.dtd">
<svg version="1.0" xmlns="http://www.w3.org/2000/svg"
 width="1280.000000pt" height="1280.000000pt" viewBox="0 0 1280.000000 1280.000000"
 preserveAspectRatio="xMidYMid meet">
<metadata>
Created by potrace 1.11, written by Peter Selinger 2001-2013
</metadata>
<g transform="translate(0.000000,1280.000000) scale(0.100000,-0.100000)"
fill="#000000" stroke="none">
<path d="M2777 9894 c-1 -1 -15 -4 -32 -7 -42 -7 -223 -40 -277 -52 -13 -2
-50 -9 -83 -14 -33 -6 -70 -12 -82 -15 -26 -5 -110 -18 -120 -18 -5 0 -26 -9
-48 -21 -22 -11 -40 -19 -40 -18 0 3 -33 -8 -70 -24 -16 -6 -61 -24 -100 -39
-38 -15 -84 -34 -101 -43 -17 -8 -37 -16 -45 -17 -8 -2 -25 -8 -39 -13 -14 -6
-50 -21 -80 -33 -30 -12 -114 -62 -187 -111 -72 -49 -136 -89 -142 -89 -5 0
-11 -4 -13 -8 -1 -5 -56 -43 -120 -86 -65 -43 -124 -88 -131 -100 -8 -11 -34
-42 -58 -68 -25 -26 -61 -66 -81 -90 -20 -24 -47 -55 -59 -69 -13 -14 -46 -52
-74 -85 -27 -32 -59 -68 -71 -80 -12 -12 -40 -51 -62 -86 -23 -34 -45 -67 -49
-73 -23 -27 -83 -125 -83 -133 0 -6 -3 -12 -7 -14 -12 -5 -284 -558 -289 -587
-3 -14 -9 -41 -15 -59 -6 -18 -12 -39 -13 -45 -7 -31 -18 -74 -27 -97 -4 -14
-11 -36 -13 -50 -3 -14 -7 -35 -10 -46 -2 -12 -7 -37 -10 -55 -3 -19 -8 -44
-10 -55 -2 -12 -7 -39 -11 -60 -18 -106 -20 -127 -30 -239 -3 -38 -8 -90 -10
-115 -2 -25 -7 -85 -10 -135 -3 -49 -8 -101 -11 -115 -7 -35 -13 -333 -7 -344
5 -8 8 -36 17 -201 3 -44 6 -80 6 -80 4 0 9 -47 14 -139 3 -57 8 -110 10 -118
3 -7 7 -31 10 -53 3 -22 10 -65 16 -95 6 -30 13 -71 16 -90 7 -55 11 -73 24
-105 6 -16 11 -31 11 -33 -4 -9 13 -82 18 -82 4 0 8 -14 9 -31 1 -18 6 -37 10
-43 3 -6 8 -22 10 -36 4 -33 11 -48 165 -360 72 -146 160 -307 194 -357 35
-51 63 -97 63 -103 0 -5 4 -10 8 -10 5 0 15 -12 23 -27 8 -16 31 -45 51 -66
21 -21 38 -40 38 -43 0 -4 42 -53 175 -201 5 -6 33 -37 60 -69 28 -32 61 -70
75 -85 14 -14 135 -100 270 -189 l245 -163 290 -117 c160 -65 297 -117 305
-117 8 -1 29 -4 45 -7 61 -14 91 -19 113 -20 12 0 22 -3 22 -6 0 -3 10 -7 23
-7 12 -1 33 -4 47 -6 14 -3 48 -8 75 -12 28 -4 55 -12 61 -16 6 -5 13 -6 16
-4 3 3 26 1 52 -5 92 -20 123 -24 243 -24 68 -1 123 -5 123 -9 0 -5 6 -5 13 0
16 10 117 10 124 0 2 -4 10 -4 16 0 16 10 97 10 103 1 3 -5 11 -5 17 -1 17 10
107 11 107 0 0 -4 6 -5 12 0 7 4 24 8 38 9 14 1 39 5 55 9 17 3 44 8 60 10 17
2 41 7 55 10 27 5 130 24 170 31 14 3 36 7 50 9 14 3 39 8 55 11 17 3 41 7 55
10 14 2 43 7 65 10 34 5 194 63 260 94 11 5 67 28 125 51 58 22 116 46 130 52
14 6 27 11 30 11 12 2 95 41 100 47 3 3 59 41 125 85 66 43 122 82 123 86 2 5
10 8 18 8 8 0 14 5 14 10 0 6 4 10 9 10 18 0 200 131 226 162 38 45 136 158
157 179 9 10 37 42 61 73 25 30 48 52 51 49 3 -4 6 -2 6 4 0 10 31 51 72 94
10 10 43 58 74 106 31 49 59 90 63 93 11 9 30 43 79 140 26 52 51 98 55 101 5
3 9 10 9 15 1 15 22 59 31 65 5 3 8 8 6 10 -3 6 115 243 126 251 6 4 6 8 1 8
-4 0 -1 11 7 24 9 13 18 36 21 50 3 14 7 29 10 34 3 5 7 21 10 36 3 15 12 51
21 81 8 30 16 58 16 62 1 5 5 18 10 29 4 12 10 39 14 61 3 21 8 50 11 63 5 27
11 56 19 105 3 17 7 41 10 55 8 39 15 98 21 175 3 38 7 90 9 115 4 40 8 86 21
255 2 28 6 77 9 110 5 68 5 171 -1 230 -5 60 -14 162 -19 235 -3 36 -7 85 -10
110 -2 25 -6 79 -9 120 -3 41 -5 75 -6 75 -1 0 -3 14 -5 30 -2 17 -7 46 -11
65 -4 19 -8 44 -10 55 -1 11 -5 34 -9 50 -3 17 -8 47 -11 69 -6 48 -54 194
-94 291 -11 27 -51 137 -55 150 -1 6 -5 17 -8 25 -10 22 -68 183 -71 195 -3
12 -38 80 -68 133 -12 20 -28 51 -36 67 -19 37 -172 275 -189 293 -7 7 -13 17
-13 21 0 4 -8 17 -17 29 -45 52 -53 63 -53 67 0 6 -27 40 -57 71 -13 13 -23
27 -23 33 0 5 -34 43 -75 85 -41 42 -75 74 -75 72 0 -3 -15 10 -34 27 -18 18
-57 52 -86 77 -29 25 -68 59 -86 77 -19 17 -34 30 -34 28 0 -1 -17 14 -38 34
-21 20 -49 44 -62 53 -44 31 -101 68 -105 68 -2 0 -34 17 -72 39 -142 80 -161
89 -167 84 -3 -4 -6 -2 -6 4 0 9 -27 21 -47 21 -3 0 -9 4 -12 9 -5 8 -134 74
-153 79 -5 1 -9 2 -10 4 -4 2 -41 11 -55 12 -7 1 -13 4 -13 8 0 4 -6 7 -12 7
-7 0 -53 13 -103 28 -49 14 -101 28 -115 31 -14 2 -45 8 -70 14 -25 5 -61 11
-80 14 -19 4 -46 9 -60 12 -14 2 -41 7 -60 8 -19 2 -42 6 -50 9 -8 3 -55 13
-105 21 -49 9 -101 19 -115 22 -22 5 -708 13 -713 8z m528 -1599 c91 -9 93 -9
120 -20 11 -4 56 -20 100 -36 44 -17 98 -39 120 -50 63 -32 120 -64 125 -69 3
-3 17 -11 31 -18 14 -8 37 -23 52 -35 65 -56 111 -93 123 -100 12 -7 74 -93
74 -103 0 -6 53 -87 61 -94 3 -3 18 -32 33 -65 15 -33 31 -68 36 -77 6 -10 10
-27 10 -38 0 -11 4 -20 10 -20 5 0 9 -3 8 -7 0 -5 2 -17 6 -28 5 -11 10 -27
14 -35 3 -8 4 -18 4 -22 -1 -5 2 -8 6 -8 5 0 9 -6 10 -12 0 -7 3 -24 7 -38 3
-14 8 -41 10 -60 2 -19 7 -51 11 -70 3 -19 8 -46 10 -60 2 -14 6 -38 9 -55 11
-66 16 -125 32 -340 13 -192 9 -675 -6 -722 -1 -2 -1 -5 -2 -8 0 -2 -5 -19
-10 -37 -6 -18 -12 -40 -14 -49 -2 -8 -11 -47 -21 -85 -9 -38 -17 -75 -17 -81
0 -7 -5 -13 -10 -13 -6 0 -8 -3 -5 -6 5 -5 -9 -43 -52 -139 -4 -11 -16 -42
-26 -70 -9 -27 -28 -64 -41 -82 -12 -17 -23 -34 -23 -37 0 -10 -105 -170 -122
-188 -10 -10 -23 -18 -30 -18 -6 0 -9 -3 -6 -6 9 -9 -113 -123 -162 -151 -93
-53 -172 -95 -183 -97 -7 -2 -25 -9 -42 -15 -16 -7 -34 -14 -40 -15 -5 -1 -14
-4 -20 -7 -47 -28 -103 -33 -380 -34 -283 -1 -292 -1 -355 23 -36 13 -69 25
-75 26 -22 6 -52 18 -80 34 -16 9 -30 14 -30 12 0 -2 -11 3 -25 12 -14 9 -56
34 -95 57 -61 35 -145 103 -145 116 0 2 -19 22 -43 44 -24 22 -72 86 -108 143
-79 128 -78 125 -118 228 -18 47 -41 103 -51 125 -16 37 -24 65 -34 130 -2 11
-12 67 -21 125 -23 142 -23 143 -29 245 -3 50 -9 137 -12 195 -9 131 -9 178 0
310 14 210 22 300 31 349 1 9 6 41 10 71 4 30 9 64 11 75 2 11 6 38 9 60 8 57
40 155 85 260 10 22 23 57 31 78 7 20 17 37 21 37 4 0 7 3 6 8 -1 4 28 54 66
112 58 89 82 116 157 175 49 39 96 76 104 83 8 7 15 10 15 6 0 -3 6 -2 13 4
25 20 112 67 177 95 39 16 162 61 170 62 3 0 10 3 15 6 11 6 75 12 152 13 29
1 53 4 53 7 0 8 183 4 285 -6z"/>
<path d="M6337 9752 c-27 -3 -159 -82 -190 -113 -22 -23 -107 -158 -123 -194
-8 -19 -14 -46 -14 -59 0 -44 52 -221 71 -240 5 -6 9 -18 9 -27 0 -10 4 -19
10 -21 5 -1 11 -12 13 -23 1 -11 7 -27 12 -35 5 -8 10 -19 11 -25 1 -5 15 -39
32 -75 17 -36 47 -103 67 -150 21 -47 50 -112 65 -145 15 -33 33 -77 40 -97 8
-21 18 -38 22 -38 4 0 8 -7 8 -15 0 -8 4 -23 9 -33 11 -20 45 -95 46 -102 3
-9 22 -53 54 -123 17 -37 31 -69 31 -71 0 -2 14 -34 32 -72 17 -38 32 -71 33
-74 3 -10 26 -63 49 -113 59 -129 74 -166 68 -171 -3 -3 0 -6 6 -6 7 0 12 -4
12 -10 0 -8 64 -157 134 -315 19 -41 55 -123 73 -165 9 -19 24 -53 34 -75 88
-197 119 -271 119 -282 0 -7 5 -13 11 -13 5 0 7 -4 4 -10 -3 -5 -2 -10 3 -10
5 0 9 -6 9 -12 1 -11 133 -315 191 -438 9 -19 17 -37 18 -40 1 -5 16 -40 56
-130 11 -25 27 -61 35 -80 23 -53 47 -105 93 -210 24 -52 43 -101 43 -107 0
-7 4 -13 9 -13 4 0 8 -4 8 -10 0 -11 43 -111 65 -152 8 -14 15 -33 15 -42 0
-9 5 -16 12 -16 6 0 8 -3 5 -7 -4 -3 -2 -12 4 -20 6 -7 8 -13 4 -13 -5 0 -1
-8 8 -17 8 -10 16 -20 16 -23 0 -10 23 -66 47 -114 13 -28 24 -53 24 -57 0 -4
18 -46 40 -93 22 -47 40 -88 40 -90 0 -3 13 -33 29 -68 36 -78 63 -139 136
-308 79 -181 109 -248 141 -318 19 -41 34 -76 34 -78 0 -2 14 -34 31 -71 17
-38 32 -72 34 -78 1 -5 7 -23 14 -39 10 -25 7 -37 -30 -115 -23 -47 -54 -113
-69 -146 -15 -33 -58 -123 -95 -200 -65 -135 -95 -198 -171 -362 -20 -43 -49
-104 -64 -135 -16 -31 -26 -59 -22 -62 3 -3 0 -6 -6 -6 -7 0 -12 -4 -12 -9 0
-5 -25 -63 -56 -128 -53 -111 -78 -164 -173 -365 -75 -161 -119 -254 -169
-358 -27 -58 -53 -115 -57 -127 -3 -13 -11 -23 -16 -23 -5 0 -9 -8 -9 -18 0
-10 -4 -22 -9 -28 -23 -25 -46 -133 -46 -215 1 -84 19 -169 37 -169 4 0 8 -6
8 -14 0 -8 34 -51 76 -94 62 -66 84 -82 122 -92 35 -10 212 -13 677 -14 l630
-1 33 23 c18 12 37 22 42 22 6 0 10 5 10 10 0 6 6 10 14 10 8 0 16 3 18 8 2 4
22 22 44 40 56 43 91 100 165 267 34 77 66 146 71 152 6 7 8 13 5 13 -4 0 5
22 18 49 14 27 25 54 25 60 0 6 5 11 10 11 6 0 9 3 8 8 -1 4 8 29 20 56 12 27
22 50 22 52 0 1 16 38 36 81 19 43 47 103 60 133 14 30 31 67 39 81 8 14 12
29 8 33 -3 3 -1 6 5 6 7 0 12 9 12 20 0 11 4 20 8 20 4 0 8 10 9 21 1 12 9 29
17 38 9 10 16 24 16 32 0 8 7 25 16 37 8 12 13 22 9 22 -3 0 1 10 9 23 8 12
23 45 34 72 11 28 34 79 50 115 31 66 116 255 187 415 64 144 110 246 126 279
10 22 19 46 19 53 0 7 5 13 10 13 6 0 10 7 10 16 0 9 7 28 15 42 8 15 33 70
56 122 22 52 51 115 63 140 13 25 24 48 25 52 2 7 24 57 67 155 10 21 18 40
19 43 0 3 16 36 33 74 18 38 32 70 32 72 0 3 48 109 82 181 11 23 19 44 17 45
-1 2 12 28 28 58 17 30 30 57 31 60 0 3 6 19 13 35 7 17 13 32 14 35 0 3 16
37 35 75 18 39 34 75 35 80 2 6 16 39 33 75 40 86 75 164 77 170 0 3 10 25 22
50 45 97 85 185 88 195 14 45 18 55 26 55 5 0 8 3 7 8 -2 9 5 25 54 130 21 46
38 85 38 87 0 2 18 42 40 89 22 47 40 88 40 91 0 2 13 32 29 64 16 33 26 62
23 65 -3 4 0 6 6 6 7 0 12 4 12 10 0 5 12 35 26 67 15 32 28 63 29 68 2 6 20
48 42 95 22 47 57 123 78 170 21 47 47 105 59 130 11 25 21 47 21 50 0 3 8 19
18 36 9 17 13 34 10 38 -4 3 -1 6 5 6 7 0 12 4 12 10 0 9 24 65 81 187 16 35
29 65 29 67 0 3 20 49 45 102 25 53 45 98 45 100 0 2 20 47 45 100 25 53 45
98 45 100 0 3 16 39 35 80 19 41 35 79 35 84 0 6 4 10 8 10 5 0 9 6 9 13 0 11
9 32 76 177 17 36 31 67 32 70 4 13 27 65 75 170 29 63 96 214 150 335 54 121
113 252 131 290 17 39 33 75 35 80 1 6 41 95 88 198 47 104 86 194 86 201 0 7
3 16 7 20 11 11 14 35 14 141 0 76 -4 107 -18 135 -10 19 -20 37 -23 40 -3 3
-6 11 -8 18 -2 12 -69 82 -78 82 -2 0 -23 14 -46 30 -22 17 -47 30 -53 30 -7
0 -18 7 -25 15 -7 9 -15 13 -18 11 -2 -3 -14 0 -25 6 -15 8 -201 11 -627 11
l-605 0 -62 -32 c-103 -54 -165 -135 -251 -331 -11 -25 -28 -63 -38 -85 -9
-22 -18 -42 -18 -45 -1 -3 -7 -15 -14 -26 -6 -12 -8 -24 -5 -28 3 -3 1 -6 -5
-6 -6 0 -13 -13 -17 -30 -4 -16 -10 -30 -14 -30 -4 0 -8 -6 -8 -12 0 -7 -14
-43 -32 -81 -17 -37 -31 -69 -31 -72 0 -2 -13 -32 -29 -67 -16 -35 -48 -106
-72 -158 -23 -52 -49 -111 -57 -130 -9 -19 -16 -37 -17 -40 -1 -3 -16 -36 -33
-74 -18 -38 -32 -71 -32 -73 0 -2 -11 -28 -24 -56 -14 -29 -76 -169 -139 -312
-112 -255 -135 -306 -183 -413 -13 -29 -24 -54 -24 -57 0 -2 -13 -32 -29 -67
-27 -59 -135 -302 -168 -378 -8 -19 -18 -42 -23 -51 -5 -9 -27 -61 -50 -115
-24 -54 -53 -121 -65 -149 -37 -81 -146 -326 -167 -375 -10 -25 -25 -57 -33
-72 -8 -14 -15 -34 -15 -45 -1 -15 -2 -15 -9 -3 -5 8 -10 20 -11 25 -1 6 -9
19 -18 29 -9 11 -12 16 -6 13 7 -4 1 14 -12 41 -22 44 -66 141 -69 152 0 3 -8
21 -17 40 -8 19 -23 51 -31 70 -8 19 -31 70 -51 113 -19 42 -35 80 -36 82 0 3
-12 31 -26 62 -14 32 -33 76 -42 98 -8 22 -23 51 -31 65 -9 13 -15 25 -13 27
3 4 -16 48 -86 203 -9 19 -17 37 -17 40 -1 3 -8 21 -17 40 -9 19 -32 73 -53
120 -20 47 -46 105 -57 130 -32 69 -57 130 -57 135 -1 3 -7 18 -15 33 -7 15
-26 55 -40 89 -22 54 -43 102 -86 198 -5 11 -18 40 -28 65 -11 25 -29 66 -41
92 -27 59 -39 92 -37 98 0 3 -7 16 -17 30 -9 13 -17 32 -17 42 0 10 -5 18 -11
18 -5 0 -7 5 -4 10 3 6 1 10 -4 10 -6 0 -10 3 -9 8 2 8 -8 31 -74 182 -28 63
-58 133 -68 155 -10 22 -28 63 -40 90 -13 28 -24 52 -25 55 -6 16 -21 52 -43
100 -14 30 -26 60 -28 65 -2 9 -17 45 -85 193 -16 35 -29 65 -29 68 0 3 -20
47 -44 97 -47 98 -113 174 -157 182 -13 3 -62 14 -109 26 -81 20 -110 21 -640
23 -305 0 -568 0 -583 -2z"/>
</g>
</svg>
